<?xml version="1.0" encoding="UTF-8" standalone="no"?>
<!-- Created with Inkscape (http://www.inkscape.org/) -->

<svg
   xmlns:dc="http://purl.org/dc/elements/1.1/"
   xmlns:cc="http://creativecommons.org/ns#"
   xmlns:rdf="http://www.w3.org/1999/02/22-rdf-syntax-ns#"
   xmlns:svg="http://www.w3.org/2000/svg"
   xmlns="http://www.w3.org/2000/svg"
   xmlns:sodipodi="http://sodipodi.sourceforge.net/DTD/sodipodi-0.dtd"
   xmlns:inkscape="http://www.inkscape.org/namespaces/inkscape"
   width="187.78836mm"
   height="19.722897mm"
   viewBox="0 0 187.78836 19.722897"
   version="1.1"
   id="svg8"
   inkscape:version="0.92.1 r15371"
   sodipodi:docname="svg_icons.svg">
  <defs
     id="defs2" />
  <sodipodi:namedview
     id="base"
     pagecolor="#ffffff"
     bordercolor="#666666"
     borderopacity="1.0"
     inkscape:pageopacity="0.0"
     inkscape:pageshadow="2"
     inkscape:zoom="1.5108866"
     inkscape:cx="385.00031"
     inkscape:cy="-34.056948"
     inkscape:document-units="mm"
     inkscape:current-layer="layer1"
     showgrid="false"
     fit-margin-top="0"
     fit-margin-left="0"
     fit-margin-right="0"
     fit-margin-bottom="0"
     inkscape:window-width="1920"
     inkscape:window-height="1017"
     inkscape:window-x="-8"
     inkscape:window-y="-8"
     inkscape:window-maximized="1" />
  <metadata
     id="metadata5">
    <rdf:RDF>
      <cc:Work
         rdf:about="">
        <dc:format>image/svg+xml</dc:format>
        <dc:type
           rdf:resource="http://purl.org/dc/dcmitype/StillImage" />
        <dc:title></dc:title>
      </cc:Work>
    </rdf:RDF>
  </metadata>
  <g
     inkscape:label="Layer 1"
     inkscape:groupmode="layer"
     id="layer1"
     transform="translate(-10.558353,-1.7306217)">
    <path
       style="fill:#e92121;fill-opacity:1;stroke-width:0.26458332"
       d="m 12.561623,20.987004 c -0.33669,-0.336694 -0.41577,-1.091549 -0.41577,-3.96875 0,-2.192261 -0.10133,-3.552976 -0.26458,-3.552976 -0.53227,0 -1.32292,-1.078349 -1.32292,-1.804298 0,-0.457488 0.40927,-1.294515 1.05833,-2.1644521 0.92009,-1.23319 1.05834,-1.599869 1.05834,-2.807011 0,-2.236229 -0.0462,-2.220071 6.35,-2.220071 6.39621,0 6.35,-0.01616 6.35,2.220071 0,1.207142 0.13825,1.573821 1.05833,2.807011 0.64906,0.8699371 1.05833,1.7069641 1.05833,2.1644521 0,0.725949 -0.79065,1.804298 -1.32291,1.804298 -0.16326,0 -0.26459,1.360715 -0.26459,3.552976 0,2.877201 -0.0791,3.632056 -0.41577,3.96875 -0.62202,0.622019 -12.30477,0.622019 -12.92679,0 z m 4.13934,-3.48683 0.0751,-2.844271 h 2.38125 2.38125 l 0.0751,2.844271 0.0751,2.844271 h 1.57855 1.57855 v -3.439584 -3.439583 h -5.82083 -5.82084 v 3.439583 3.439584 h 1.71084 1.71084 z m 4.44072,0.198437 v -2.645833 h -1.98437 -1.98438 v 2.645833 2.645834 h 1.98438 1.98437 z m -7.47079,-6.151562 c 0.28043,-0.472943 0.7761,-1.30638 1.10149,-1.8520831 l 0.59163,-0.992187 -1.01377,0.01032 c -0.8876,0.009 -1.12078,0.155829 -1.87366,1.179501 -0.47294,0.6430511 -0.8599,1.4718451 -0.8599,1.8417651 0,0.566747 0.12151,0.672581 0.77217,0.672581 0.59019,0 0.89234,-0.202655 1.28204,-0.859897 z m 2.90093,-0.992187 0.54027,-1.8520831 -0.69718,0.0018 c -0.59003,0.0015 -0.85207,0.286163 -1.70488,1.8520831 l -1.0077,1.85031 h 1.16461 1.1646 z m 2.18861,0 c 0,-1.7914331 -0.0213,-1.8520831 -0.65126,-1.8520831 -0.54466,0 -0.69835,0.184045 -0.93898,1.124479 -0.15824,0.6184631 -0.39476,1.4519011 -0.5256,1.8520831 -0.23551,0.72035 -0.22615,0.727604 0.93898,0.727604 h 1.17686 z m 2.3093,0 c -0.47034,-1.6123551 -0.62052,-1.8520831 -1.1602,-1.8520831 -0.59114,0 -0.61993,0.086 -0.61993,1.8520831 v 1.852083 h 1.1602 1.16021 z m 2.27027,0.0018 c -0.85281,-1.5659171 -1.11485,-1.8505831 -1.70488,-1.8520811 l -0.69718,-0.0018 0.54028,1.8520831 0.54027,1.852084 h 1.16461 1.1646 l -1.0077,-1.850314 z m 3.09335,1.177729 c 0,-0.36992 -0.38695,-1.198714 -0.8599,-1.8417651 -0.75287,-1.023672 -0.98606,-1.170467 -1.87366,-1.179501 l -1.01377,-0.01032 0.55075,0.926041 c 0.30291,0.5093231 0.79858,1.3427601 1.10149,1.8520831 0.4288,0.720987 0.72173,0.926042 1.32292,0.926042 0.65066,0 0.77217,-0.105834 0.77217,-0.67258 z m -2.11667,-5.1482491 v -1.058333 h -5.29166 -5.29167 v 1.058333 1.058333 h 5.29167 5.29166 z"
       id="path4752"
       inkscape:connector-curvature="0" />
    <path
       style="fill:#e92121;fill-opacity:1;stroke-width:0.26458332"
       d="m 40.745838,20.699405 c -0.485537,-0.485536 -0.529167,-0.881944 -0.529167,-4.807812 0,-3.682157 -0.06371,-4.349046 -0.457007,-4.783633 -0.265953,-0.293874 -0.457008,-0.929761 -0.457008,-1.5210538 0,-0.591293 0.191055,-1.22718 0.457008,-1.521054 0.279204,-0.308518 0.457007,-0.93437 0.457007,-1.608633 0,-0.750868 0.169147,-1.272793 0.529167,-1.632812 1.156912,-1.156913 2.645833,-0.238061 2.645833,1.632812 0,0.674263 0.177803,1.300115 0.457008,1.608633 0.597484,0.660213 0.597484,2.3818958 0,3.0421078 -0.393296,0.434587 -0.457008,1.101476 -0.457008,4.783633 0,3.925868 -0.04363,4.322276 -0.529167,4.807812 -0.291041,0.291042 -0.767291,0.529167 -1.058333,0.529167 -0.291042,0 -0.767291,-0.238125 -1.058333,-0.529167 z m 1.5875,-4.497916 c 0,-3.792361 -0.02352,-3.96875 -0.529167,-3.96875 -0.505648,0 -0.529167,0.176389 -0.529167,3.96875 0,3.792361 0.02352,3.96875 0.529167,3.96875 0.505648,0 0.529167,-0.176389 0.529167,-3.96875 z m 0.574479,-5.464965 c 0.60246,-0.545218 0.62427,-1.6142508 0.04597,-2.2532628 -0.908546,-1.003932 -2.737118,-0.297337 -2.737118,1.057673 0,1.4152578 1.642228,2.1448468 2.691146,1.1955898 z M 42.333338,6.1473232 c 0,-0.617361 -0.117593,-0.79375 -0.529167,-0.79375 -0.411574,0 -0.529167,0.176389 -0.529167,0.79375 0,0.617361 0.117593,0.79375 0.529167,0.79375 0.411574,0 0.529167,-0.176389 0.529167,-0.79375 z m 4.233333,14.5520818 c -0.36002,-0.360019 -0.529167,-0.881944 -0.529167,-1.632812 0,-0.674263 -0.177803,-1.300115 -0.457007,-1.608633 -0.597485,-0.660213 -0.597485,-2.381896 0,-3.042108 0.393295,-0.434587 0.457007,-1.101476 0.457007,-4.7836328 0,-3.925868 0.04363,-4.322276 0.529167,-4.807812 0.291041,-0.291042 0.767292,-0.529167 1.058332,-0.529167 0.29104,0 0.76729,0.238125 1.05833,0.529167 0.48554,0.485536 0.52917,0.881944 0.52917,4.807812 0,3.6821568 0.0637,4.3490458 0.45701,4.7836328 0.59748,0.660212 0.59748,2.381895 0,3.042108 -0.27921,0.308518 -0.45701,0.93437 -0.45701,1.608633 0,1.225062 -0.68796,2.161979 -1.5875,2.161979 -0.29104,0 -0.767291,-0.238125 -1.058332,-0.529167 z m 1.587502,-1.322916 c 0,-0.617361 -0.11759,-0.79375 -0.52917,-0.79375 -0.41157,0 -0.52917,0.176389 -0.52917,0.79375 0,0.617361 0.1176,0.79375 0.52917,0.79375 0.41158,0 0.52917,-0.176389 0.52917,-0.79375 z m 0.57448,-2.289966 c 1.00393,-0.908545 0.29733,-2.737117 -1.05768,-2.737117 -1.415255,0 -2.144844,1.642228 -1.195587,2.691145 0.545219,0.60246 1.614247,0.624271 2.253267,0.04597 z m -0.57448,-7.7641998 c 0,-3.792361 -0.0235,-3.96875 -0.52917,-3.96875 -0.50565,0 -0.52917,0.176389 -0.52917,3.96875 0,3.7923608 0.0235,3.9687498 0.52917,3.9687498 0.50565,0 0.52917,-0.176389 0.52917,-3.9687498 z m 4.23333,11.3770818 c -0.48554,-0.485536 -0.52917,-0.881944 -0.52917,-4.807812 0,-3.682157 -0.0637,-4.349046 -0.457,-4.783633 -0.59749,-0.660212 -0.59749,-2.3818948 0,-3.0421078 0.2792,-0.308518 0.457,-0.93437 0.457,-1.608633 0,-0.750868 0.16915,-1.272793 0.52917,-1.632812 1.15691,-1.156913 2.64583,-0.238061 2.64583,1.632812 0,0.674263 0.17781,1.300115 0.45701,1.608633 0.59749,0.660213 0.59749,2.3818958 0,3.0421078 -0.39329,0.434587 -0.45701,1.101476 -0.45701,4.783633 0,3.925868 -0.0436,4.322276 -0.52916,4.807812 -0.29104,0.291042 -0.76729,0.529167 -1.05834,0.529167 -0.29104,0 -0.76729,-0.238125 -1.05833,-0.529167 z m 1.5875,-4.497916 c 0,-3.792361 -0.0235,-3.96875 -0.52917,-3.96875 -0.50564,0 -0.52916,0.176389 -0.52916,3.96875 0,3.792361 0.0235,3.96875 0.52916,3.96875 0.50565,0 0.52917,-0.176389 0.52917,-3.96875 z m 0.57448,-5.464965 c 0.60246,-0.545218 0.62427,-1.6142508 0.046,-2.2532628 -0.90854,-1.003932 -2.73712,-0.297337 -2.73712,1.057673 0,1.4152578 1.64223,2.1448468 2.69115,1.1955898 z m -0.57448,-4.5892008 c 0,-0.617361 -0.11759,-0.79375 -0.52917,-0.79375 -0.41157,0 -0.52916,0.176389 -0.52916,0.79375 0,0.617361 0.11759,0.79375 0.52916,0.79375 0.41158,0 0.52917,-0.176389 0.52917,-0.79375 z"
       id="path4809"
       inkscape:connector-curvature="0" />
    <path
       style="fill:#e92121;fill-opacity:1;stroke-width:0.26458332"
       d="m 70.644443,17.645988 c -1.57765,-1.554645 -2.93521,-3.036976 -3.01681,-3.294068 -0.1562,-0.492145 0.37977,-1.705956 1.30896,-2.964436 0.30488,-0.412916 1.38776,-1.291097 2.40641,-1.9515124 4.42875,-2.8712778 4.67461,-3.0729768 5.47526,-4.4916398 0.43613,-0.772777 0.97798,-1.405049 1.20412,-1.405049 0.48407,0 6.07989,5.438545 6.29582,6.1188708 0.38456,1.2116404 -1.76477,3.8152604 -4.4981,5.4488384 -2.92402,1.747547 -3.99254,2.655781 -4.73985,4.028829 -0.40211,0.73882 -0.9154,1.336794 -1.14747,1.336794 -0.23095,0 -1.7107,-1.271982 -3.28834,-2.826627 z m 3.7296,0.732827 c 0.60601,-1.187885 1.93491,-2.314133 4.80871,-4.075397 2.08987,-1.28082 3.74126,-2.860247 4.06847,-3.891172 0.15982,-0.5035504 -0.21447,-0.9968144 -2.46107,-3.2434192 l -2.64956,-2.649554 -0.54823,1.074639 c -0.62831,1.231574 -1.9933,2.390883 -4.71511,4.0046008 -1.98545,1.1771454 -3.85112,2.9584664 -4.17833,3.9894214 -0.16244,0.511794 0.19455,0.987337 2.41237,3.213516 1.43167,1.437058 2.63261,2.612832 2.66876,2.612832 0.0362,0 0.30345,-0.46596 0.59399,-1.035467 z m -1.04667,-0.78009 c 0,-0.460759 1.71485,-2.244469 2.04258,-2.124606 0.15595,0.05704 -0.23983,0.627906 -0.87951,1.268595 -0.63969,0.64069 -1.16307,1.025895 -1.16307,0.856011 z m 2.29599,-3.649567 c -0.39677,-0.396768 -0.14111,-0.668069 0.48214,-0.511643 0.45515,0.114236 0.66146,0.05716 0.66146,-0.182984 0,-0.647226 -0.57325,-0.943577 -1.5261,-0.78895 -1.25157,0.203101 -1.70818,-0.369695 -1.31526,-1.649934 0.20671,-0.673545 0.4661,-0.9437494 1.0235,-1.0661744 0.79792,-0.175253 1.28869,-0.0036 1.28869,0.4508664 0,0.153905 -0.23801,0.217588 -0.5289,0.141516 -0.2909,-0.07607 -0.58725,-0.04392 -0.65855,0.07145 -0.24066,0.389405 0.71154,0.913251 1.54778,0.851492 1.29508,-0.09565 1.58794,0.236171 1.38723,1.571791 -0.16716,1.112388 -0.20937,1.156207 -1.17802,1.222809 -0.55256,0.03799 -1.08534,-0.01162 -1.18397,-0.110243 z m 1.93735,-1.561949 c 0,-0.209693 -0.23813,-0.38126 -0.52917,-0.38126 -0.59526,0 -0.67861,0.273895 -0.22223,0.730271 0.36473,0.364728 0.7514,0.185127 0.7514,-0.349011 z m -2.38125,-1.042718 c -0.18116,-0.218282 -0.43386,-0.396875 -0.56157,-0.396875 -0.1277,0 -0.23218,0.178593 -0.23218,0.396875 0,0.228118 0.23878,0.396875 0.56156,0.396875 0.46917,0 0.50737,-0.0653 0.23219,-0.396875 z m 1.05833,-2.5946602 c 0,-0.04462 0.53578,-0.656458 1.19062,-1.35965 0.65485,-0.703193 1.19063,-1.107572 1.19063,-0.89862 0,0.37894 -1.83858,2.339388 -2.19397,2.339388 -0.103,0 -0.18728,-0.0365 -0.18728,-0.08112 z"
       id="path4811"
       inkscape:connector-curvature="0" />
    <path
       style="fill:#e92121;fill-opacity:1;stroke-width:0.26458332"
       d="m 128.8143,19.867855 c -0.50095,-0.500944 -0.52917,-0.881944 -0.52917,-7.143749 0,-6.2618042 0.0282,-6.6428042 0.52917,-7.1437482 0.38615,-0.386156 0.88194,-0.529167 1.83451,-0.529167 1.22732,0 1.31034,-0.04349 1.38906,-0.727604 0.0498,-0.433162 0.24432,-0.727604 0.48059,-0.727604 0.23627,0 0.43076,0.294442 0.4806,0.727604 0.0807,0.701561 0.13928,0.727604 1.63607,0.727604 1.49679,0 1.55535,-0.02604 1.63607,-0.727604 0.11124,-0.966743 0.84996,-0.966743 0.96119,0 0.0807,0.701561 0.13928,0.727604 1.63607,0.727604 1.49679,0 1.55535,-0.02604 1.63607,-0.727604 0.11124,-0.966743 0.84996,-0.966743 0.96119,0 0.0787,0.684117 0.16174,0.727604 1.38907,0.727604 0.95256,0 1.44835,0.143011 1.83451,0.529167 0.50094,0.500944 0.52916,0.881944 0.52916,7.1437482 0,6.261805 -0.0282,6.642805 -0.52916,7.143749 -0.50397,0.503969 -0.88195,0.529167 -7.9375,0.529167 -7.05556,0 -7.43354,-0.0252 -7.9375,-0.529167 z m 15.34583,-7.143749 V 6.1095238 h -1.30534 c -1.22733,0 -1.31035,0.04349 -1.38907,0.727604 -0.0498,0.433162 -0.24432,0.727604 -0.48059,0.727604 -0.23627,0 -0.43076,-0.294442 -0.4806,-0.727604 -0.0807,-0.701561 -0.13928,-0.727604 -1.63607,-0.727604 -1.49679,0 -1.55535,0.02604 -1.63607,0.727604 -0.11123,0.966743 -0.84995,0.966743 -0.96119,0 -0.0807,-0.701561 -0.13928,-0.727604 -1.63607,-0.727604 -1.49679,0 -1.55535,0.02604 -1.63607,0.727604 -0.0498,0.433162 -0.24433,0.727604 -0.4806,0.727604 -0.23627,0 -0.43075,-0.294442 -0.48059,-0.727604 -0.0787,-0.684117 -0.16174,-0.727604 -1.38906,-0.727604 h -1.30535 v 6.6145822 6.614583 h 7.40834 7.40833 z m -12.17083,3.175 c 0,-0.749653 0.0588,-0.79375 1.05833,-0.79375 0.99954,0 1.05833,0.0441 1.05833,0.79375 0,0.749652 -0.0588,0.79375 -1.05833,0.79375 -0.99954,0 -1.05833,-0.0441 -1.05833,-0.79375 z m 3.70416,0 c 0,-0.749653 0.0588,-0.79375 1.05834,-0.79375 0.99953,0 1.05833,0.0441 1.05833,0.79375 0,0.749652 -0.0588,0.79375 -1.05833,0.79375 -0.99954,0 -1.05834,-0.0441 -1.05834,-0.79375 z m 3.70417,0 c 0,-0.749653 0.0588,-0.79375 1.05833,-0.79375 0.99954,0 1.05834,0.0441 1.05834,0.79375 0,0.749652 -0.0588,0.79375 -1.05834,0.79375 -0.99953,0 -1.05833,-0.0441 -1.05833,-0.79375 z m -7.40833,-2.645833 c 0,-0.749653 0.0588,-0.79375 1.05833,-0.79375 0.99954,0 1.05833,0.0441 1.05833,0.79375 0,0.749652 -0.0588,0.793749 -1.05833,0.793749 -0.99954,0 -1.05833,-0.0441 -1.05833,-0.793749 z m 3.70416,0 c 0,-0.749653 0.0588,-0.79375 1.05834,-0.79375 0.99953,0 1.05833,0.0441 1.05833,0.79375 0,0.749652 -0.0588,0.793749 -1.05833,0.793749 -0.99954,0 -1.05834,-0.0441 -1.05834,-0.793749 z m 3.70417,0 c 0,-0.749653 0.0588,-0.79375 1.05833,-0.79375 0.99954,0 1.05834,0.0441 1.05834,0.79375 0,0.749652 -0.0588,0.793749 -1.05834,0.793749 -0.99953,0 -1.05833,-0.0441 -1.05833,-0.793749 z M 131.9893,10.60744 c 0,-0.7496522 0.0588,-0.7937492 1.05833,-0.7937492 0.99954,0 1.05833,0.0441 1.05833,0.7937492 0,0.749652 -0.0588,0.793749 -1.05833,0.793749 -0.99954,0 -1.05833,-0.0441 -1.05833,-0.793749 z m 3.70416,0 c 0,-0.7496522 0.0588,-0.7937492 1.05834,-0.7937492 0.99953,0 1.05833,0.0441 1.05833,0.7937492 0,0.749652 -0.0588,0.793749 -1.05833,0.793749 -0.99954,0 -1.05834,-0.0441 -1.05834,-0.793749 z m 3.70417,0 c 0,-0.7496522 0.0588,-0.7937492 1.05833,-0.7937492 0.99954,0 1.05834,0.0441 1.05834,0.7937492 0,0.749652 -0.0588,0.793749 -1.05834,0.793749 -0.99953,0 -1.05833,-0.0441 -1.05833,-0.793749 z"
       id="path4815"
       inkscape:connector-curvature="0" />
    <path
       style="fill:#e92121;fill-opacity:1;stroke-width:0.26458332"
       d="m 159.50596,18.053571 c -0.48997,-0.489969 -0.52917,-0.881944 -0.52917,-5.291666 0,-4.4097222 0.0392,-4.8016972 0.52917,-5.2916662 0.57389,-0.573897 2.83985,-0.758484 3.32729,-0.271044 0.33342,0.333429 1.78551,-0.532928 2.35821,-1.406979 0.23242,-0.354724 0.52205,-1.274137 0.64361,-2.043141 0.24991,-1.580924 0.84658,-2.208256 1.87297,-1.969214 1.38361,0.322238 2.61499,2.700931 2.25252,4.351255 -0.15705,0.715031 -0.1262,0.737449 1.24061,0.901602 0.77091,0.09259 1.85356,0.169373 2.40587,0.170638 1.41008,0.0032 2.42351,1.018801 2.19616,2.200811 -0.0893,0.464308 -0.20011,1.3428042 -0.24624,1.9522132 -0.0461,0.609408 -0.208,1.264252 -0.35969,1.455208 -0.1517,0.190956 -0.28346,0.731954 -0.29281,1.202219 -0.009,0.470265 -0.18905,1.18464 -0.39932,1.5875 -0.21028,0.40286 -0.48817,1.08713 -0.61755,1.5206 -0.12937,0.433469 -0.53089,0.937729 -0.89228,1.120578 -0.94713,0.479216 -4.51291,0.408539 -7.21015,-0.142912 -2.23563,-0.457077 -2.33546,-0.456915 -2.75298,0.0044 -0.62611,0.691836 -2.81526,0.660517 -3.52622,-0.05045 z m 3.175,-5.291666 V 7.9994058 h -1.32292 -1.32292 v 4.7624992 4.7625 h 1.32292 1.32292 z m -1.86311,3.823179 c -0.28119,-0.338818 -0.26382,-0.486732 0.0999,-0.850446 0.41067,-0.410668 0.46991,-0.410668 0.88058,0 0.36372,0.363714 0.38109,0.511628 0.0999,0.850446 -0.18722,0.225585 -0.43031,0.410154 -0.54019,0.410154 -0.10988,0 -0.35297,-0.184569 -0.54019,-0.410154 z m 0.80477,-0.383596 c 0,-0.145521 -0.11906,-0.264583 -0.26458,-0.264583 -0.14552,0 -0.26458,0.119062 -0.26458,0.264583 0,0.145521 0.11906,0.264584 0.26458,0.264584 0.14552,0 0.26458,-0.119063 0.26458,-0.264584 z m 11.32851,0.463021 c 0.0752,-0.653764 0.001,-0.727604 -0.7276,-0.727604 -0.44623,0 -0.81132,-0.119063 -0.81132,-0.264583 0,-0.145521 0.4788,-0.264584 1.064,-0.264584 0.87076,0 1.11735,-0.117073 1.3577,-0.644586 0.44698,-0.981021 0.12214,-1.47208 -0.97381,-1.47208 -0.56593,0 -0.88385,-0.10696 -0.78644,-0.264584 0.0899,-0.14552 0.55864,-0.264583 1.04156,-0.264583 1.02005,0 1.54876,-0.509567 1.42615,-1.374499 -0.0693,-0.489151 -0.29595,-0.639628 -1.14479,-0.760175 -1.12117,-0.159222 -0.86852,-0.429424 0.52917,-0.565929 0.59858,-0.05846 0.815,-0.2274772 0.8802,-0.6873972 0.16703,-1.17821 -0.32132,-1.374499 -3.41959,-1.374499 h -2.87147 l 0.25803,-0.678683 c 0.66152,-1.739931 -0.1311,-4.612984 -1.27264,-4.612984 -0.3741,0 -0.55267,0.351286 -0.80871,1.590909 -0.36667,1.775235 -1.37012,3.154999 -2.69302,3.702963 l -0.80151,0.331996 0.0727,4.1288652 0.0727,4.128865 1.85209,0.449068 c 1.26222,0.306047 2.779,0.433564 4.7625,0.400388 l 2.91041,-0.04868 z"
       id="path4817"
       inkscape:connector-curvature="0" />
    <path
       style="fill:#e92121;fill-opacity:1;stroke-width:0.26458332"
       d="m 101.55932,16.551118 c -1.804969,-1.78263 -3.502229,-3.598333 -3.771689,-4.034896 -1.181,-1.913415 -0.87198,-4.3548282 0.75744,-5.9842522 1.637499,-1.637496 4.021519,-1.933861 6.050399,-0.752145 0.84369,0.491401 0.87611,0.491401 1.71979,0 4.42724,-2.578626 9.47461,2.415784 6.80784,6.7363972 -0.26946,0.436563 -1.96672,2.252266 -3.77169,4.034896 -2.30055,2.27207 -3.46544,3.241146 -3.89604,3.241146 -0.43061,0 -1.5955,-0.969076 -3.89605,-3.241146 z m 7.66675,-1.210347 c 2.67537,-2.724766 3.36759,-3.584719 3.51408,-4.365625 0.52002,-2.7719472 -1.23006,-4.9412162 -3.98639,-4.9412162 -1.04991,0 -1.80139,0.316239 -2.70308,1.137517 l -0.59531,0.542225 -0.59532,-0.542225 c -0.90169,-0.821278 -1.65316,-1.137517 -2.70308,-1.137517 -2.756329,0 -4.506409,2.169269 -3.986389,4.9412162 0.1465,0.780906 0.83871,1.640859 3.514079,4.365625 1.8324,1.866238 3.52922,3.39316 3.77071,3.39316 0.24148,0 1.9383,-1.526922 3.7707,-3.39316 z M 99.776651,9.4073678 c 0.0978,-0.327422 0.373679,-0.791229 0.613139,-1.030683 0.53661,-0.536612 1.62599,-0.889626 1.62599,-0.526903 0,0.145206 -0.26789,0.302058 -0.59531,0.348559 -0.36684,0.0521 -0.74763,0.412365 -0.99219,0.938717 -0.452439,0.9737612 -0.919559,1.1675312 -0.651629,0.27031 z"
       id="path4813"
       inkscape:connector-curvature="0" />
    <path
       style="fill:#e92121;fill-opacity:1;stroke-width:0.26458335"
       d="m 192.02883,14.343544 c -1.4354,-0.391183 -2.91688,-1.951394 -3.30085,-3.476241 -1.21305,-4.81746 4.65842,-8.177687 8.16392,-4.672189 3.56992,3.5699194 0.04,9.484637 -4.86307,8.14843 z m 1.03973,-3.765703 c 0.23221,-0.354397 0.38379,-0.9794746 0.33683,-1.3890626 -0.0676,-0.5901364 -0.2367,-0.7621124 -0.81448,-0.8285714 -0.91093,-0.104779 -1.23529,0.5656594 -0.60866,1.2580784 0.29285,0.323597 0.34935,0.5529036 0.16438,0.6672186 -0.41951,0.259274 -0.34071,0.936694 0.10896,0.936694 0.21493,0 0.58076,-0.289961 0.81297,-0.644357 z m 2.11667,0 c 0.23221,-0.354397 0.38378,-0.9794746 0.33683,-1.3890626 -0.0676,-0.5901364 -0.2367,-0.7621124 -0.81448,-0.8285714 -0.90471,-0.104064 -1.23667,0.5641314 -0.61922,1.2464084 0.3877,0.4284016 0.39155,0.5179666 0.035,0.8138746 -0.22035,0.182875 -0.33539,0.438071 -0.25564,0.567103 0.26805,0.433727 0.89198,0.239682 1.31751,-0.409752 z"
       id="path4834"
       inkscape:connector-curvature="0" />
  </g>
</svg>
